<svg width="109" height="72" viewBox="0 0 109 72" fill="none" xmlns="http://www.w3.org/2000/svg">
<path d="M45.5 14.3C42.3 13.3 39.7667 12.6 37.9 12.2C36.0334 11.7334 33.7667 11.5 31.1 11.5C25.7 11.5 21.5333 13.7 18.6 18.1C15.6667 22.5 14.2 28.5334 14.2 36.2C14.2 42.8 15.4333 48.5 17.9 53.3C20.3667 58.1 24.5 60.5 30.3 60.5C33.1667 60.5 35.8334 60.2 38.3 59.6C40.8334 59 43.1334 58.2667 45.2 57.4L50.1 67.0001C47.5 68.3334 44.3667 69.4001 40.7 70.2001C37.0334 71.0001 33.8 71.4001 31 71.4001C20.4 71.4001 12.7 68 7.90001 61.2C3.10001 54.4 0.700012 46.1 0.700012 36.3C0.700012 25.8334 3.33335 17.2667 8.60001 10.6C13.9333 3.93337 21.5667 0.600037 31.5 0.600037C33.5 0.600037 37.1667 1.33345 40.7 2.00012C44.2334 2.66678 47.1667 2.9 50.1 4.5L45.5 14.3Z" fill="white"/>
<path d="M77.4774 70.0001H52.6774V2.00004H77.8774C88.344 2.00004 96.1107 5.1667 101.177 11.5C106.244 17.8334 108.777 25.8667 108.777 35.6C108.777 46.1334 106.044 54.5 100.577 60.7C95.1107 66.9 87.4107 70.0001 77.4774 70.0001ZM77.9774 13H65.5774V59.1H77.2774C82.744 59.1 87.1107 57.3 90.3774 53.7C93.7107 50.1 95.3774 44.0667 95.3774 35.6C95.3774 28.5334 93.9774 23 91.1774 19C88.3774 15 83.9774 13 77.9774 13Z" fill="#022441"/>
</svg>
